<mxfile host="app.diagrams.net" modified="2024-06-06T17:44:28.225Z" agent="Mozilla/5.0 (Windows NT 10.0; Win64; x64) AppleWebKit/537.36 (KHTML, like Gecko) Chrome/125.0.0.0 Safari/537.36 Edg/125.0.0.0" version="24.5.1" etag="M-XtKSFjz88mMiRZppT3" type="github">
  <diagram name="Page-1" id="6mYcaIIja5JZ75TEONda">
    <mxGraphModel>
      <root>
        <mxCell id="0" />
        <mxCell id="1" parent="0" />
        <mxCell id="2" value="The game is pixel art" style="whiteSpace=wrap;strokeWidth=2;" vertex="1" parent="1">
          <mxGeometry x="75" width="167" height="34" as="geometry" />
        </mxCell>
        <mxCell id="3" value="You are a character" style="rounded=1;absoluteArcSize=1;arcSize=14;whiteSpace=wrap;strokeWidth=2;" vertex="1" parent="1">
          <mxGeometry x="81" y="102" width="156" height="34" as="geometry" />
        </mxCell>
        <mxCell id="4" value="Collect gems" style="rhombus;strokeWidth=2;whiteSpace=wrap;" vertex="1" parent="1">
          <mxGeometry x="88" y="205" width="141" height="141" as="geometry" />
        </mxCell>
        <mxCell id="5" value="Sublevel 1" style="rounded=1;absoluteArcSize=1;arcSize=14;whiteSpace=wrap;strokeWidth=2;" vertex="1" parent="1">
          <mxGeometry x="22" y="414" width="88" height="34" as="geometry" />
        </mxCell>
        <mxCell id="6" value="Sublevel 2" style="rounded=1;absoluteArcSize=1;arcSize=14;whiteSpace=wrap;strokeWidth=2;" vertex="1" parent="1">
          <mxGeometry x="207" y="414" width="88" height="34" as="geometry" />
        </mxCell>
        <mxCell id="7" value="Defeat Boss" style="rhombus;strokeWidth=2;whiteSpace=wrap;" vertex="1" parent="1">
          <mxGeometry y="519" width="132" height="132" as="geometry" />
        </mxCell>
        <mxCell id="8" value="Solve Puzzle" style="rhombus;strokeWidth=2;whiteSpace=wrap;" vertex="1" parent="1">
          <mxGeometry x="182" y="516" width="137" height="137" as="geometry" />
        </mxCell>
        <mxCell id="9" value="Next level" style="rounded=1;absoluteArcSize=1;arcSize=14;whiteSpace=wrap;strokeWidth=2;" vertex="1" parent="1">
          <mxGeometry x="115" y="722" width="88" height="34" as="geometry" />
        </mxCell>
        <mxCell id="10" value="Battle against Final Boss" style="rounded=1;absoluteArcSize=1;arcSize=14;whiteSpace=wrap;strokeWidth=2;" vertex="1" parent="1">
          <mxGeometry x="64" y="825" width="190" height="34" as="geometry" />
        </mxCell>
        <mxCell id="11" value="Game completed" style="whiteSpace=wrap;strokeWidth=2;" vertex="1" parent="1">
          <mxGeometry x="90" y="927" width="137" height="34" as="geometry" />
        </mxCell>
        <mxCell id="12" value="Start" style="curved=1;startArrow=none;endArrow=block;exitX=0.4999337795965686;exitY=0.9901961158303654;entryX=0.4967239820040189;entryY=0.009803996366613051;" edge="1" parent="1" source="2" target="3">
          <mxGeometry relative="1" as="geometry">
            <Array as="points" />
          </mxGeometry>
        </mxCell>
        <mxCell id="13" value="Objective" style="curved=1;startArrow=none;endArrow=block;exitX=0.4967239820040189;exitY=1.0000001121969784;entryX=0.49992156874203514;entryY=-0.002364030121066046;" edge="1" parent="1" source="3" target="4">
          <mxGeometry relative="1" as="geometry">
            <Array as="points" />
          </mxGeometry>
        </mxCell>
        <mxCell id="14" value="Level 1" style="curved=1;startArrow=none;endArrow=block;exitX=0.059502843836357844;exitY=0.9960661543176529;entryX=0.5011393807151101;entryY=0.0032939910888671875;" edge="1" parent="1" source="4" target="5">
          <mxGeometry relative="1" as="geometry">
            <Array as="points">
              <mxPoint x="66" y="380" />
            </Array>
          </mxGeometry>
        </mxCell>
        <mxCell id="15" value="Level 2" style="curved=1;startArrow=none;endArrow=block;exitX=0.9403402936477124;exitY=0.9960661543176529;entryX=0.4986092827536843;entryY=0.0032939910888671875;" edge="1" parent="1" source="4" target="6">
          <mxGeometry relative="1" as="geometry">
            <Array as="points">
              <mxPoint x="251" y="380" />
            </Array>
          </mxGeometry>
        </mxCell>
        <mxCell id="16" value="Challenge" style="curved=1;startArrow=none;endArrow=block;exitX=0.5011393807151101;exitY=0.9934901069192326;entryX=0.5007595871434067;entryY=0.00016781778046579072;" edge="1" parent="1" source="5" target="7">
          <mxGeometry relative="1" as="geometry">
            <Array as="points" />
          </mxGeometry>
        </mxCell>
        <mxCell id="17" value="Challenge" style="curved=1;startArrow=none;endArrow=block;exitX=0.4986092827536843;exitY=0.9934901069192326;entryX=0.502756327608206;entryY=0.0032505954269075044;" edge="1" parent="1" source="6" target="8">
          <mxGeometry relative="1" as="geometry">
            <Array as="points" />
          </mxGeometry>
        </mxCell>
        <mxCell id="18" value="Success" style="curved=1;startArrow=none;endArrow=block;exitX=0.5007595871434067;exitY=1.0016869920672793;entryX=0.14879510589789227;entryY=0.013710919548483455;" edge="1" parent="1" source="7" target="9">
          <mxGeometry relative="1" as="geometry">
            <Array as="points">
              <mxPoint x="66" y="688" />
            </Array>
          </mxGeometry>
        </mxCell>
        <mxCell id="19" value="Success" style="curved=1;startArrow=none;endArrow=block;exitX=0.502756327608206;exitY=1.0058357907037665;entryX=0.8395899212072657;entryY=0.013710919548483455;" edge="1" parent="1" source="8" target="9">
          <mxGeometry relative="1" as="geometry">
            <Array as="points">
              <mxPoint x="251" y="688" />
            </Array>
          </mxGeometry>
        </mxCell>
        <mxCell id="20" value="Final Boss" style="curved=1;startArrow=none;endArrow=block;exitX=0.49419251355257904;exitY=1.0039070353788488;entryX=0.49731021680329973;entryY=-0.005896848790785845;" edge="1" parent="1" source="9" target="10">
          <mxGeometry relative="1" as="geometry">
            <Array as="points" />
          </mxGeometry>
        </mxCell>
        <mxCell id="21" value="Victory" style="curved=1;startArrow=none;endArrow=block;exitX=0.49731021680329973;exitY=0.9842992670395795;entryX=0.49991927877829895;entryY=0.003907147575827206;" edge="1" parent="1" source="10" target="11">
          <mxGeometry relative="1" as="geometry">
            <Array as="points" />
          </mxGeometry>
        </mxCell>
      </root>
    </mxGraphModel>
  </diagram>
</mxfile>
